<?xml version="1.0" encoding="utf-8"?>
<!-- Generator: Adobe Illustrator 21.0.0, SVG Export Plug-In . SVG Version: 6.00 Build 0)  -->
<svg version="1.1" id="Layer_1" xmlns="http://www.w3.org/2000/svg" xmlns:xlink="http://www.w3.org/1999/xlink" x="0px" y="0px"
	 viewBox="0 0 300 300" style="enable-background:new 0 0 300 300;" xml:space="preserve">
<g>
	<rect x="101.8" y="130.7" width="22.2" height="66.7"/>
	<rect x="175.9" y="130.7" width="22.2" height="66.7"/>
	<rect x="138.8" y="130.7" width="22.2" height="66.7"/>
	<path d="M150,0C67.2,0,0,67.2,0,150s67.2,150,150,150s150-67.2,150-150S232.8,0,150,0z M224.1,231.6H75.8c-4.1,0-7.4-3.3-7.4-7.4
		c0-4.1,3.3-7.4,7.4-7.4h148.3c4.1,0,7.4,3.3,7.4,7.4C231.5,228.2,228.2,231.6,224.1,231.6z M85.1,130.7c-2,0-3.7-1.7-3.7-3.7
		s1.7-3.7,3.7-3.7h129.8c2,0,3.7,1.7,3.7,3.7s-1.7,3.7-3.7,3.7H213v66.7h1.9c4.1,0,7.4,3.3,7.4,7.4c0,4.1-3.3,7.4-7.4,7.4H85.1
		c-4.1,0-7.4-3.3-7.4-7.4c0-4.1,3.3-7.4,7.4-7.4v0h1.9v-66.7H85.1z M224.2,116.6C224.2,116.6,224.1,116.6,224.2,116.6H75.8
		c-3.5,0-6.5-2.4-7.2-5.9c-0.7-3.4,1-6.9,4.2-8.3l74.1-33.4c1.9-0.9,4.1-0.9,6.1,0l73.6,33.1c2.9,1,5,3.8,5,7
		C231.6,113.3,228.3,116.6,224.2,116.6z"/>
</g>
</svg>
