<?xml version="1.0" encoding="utf-8"?>
<!-- Generator: Adobe Illustrator 21.0.0, SVG Export Plug-In . SVG Version: 6.00 Build 0)  -->
<svg version="1.1" id="Layer_1" xmlns="http://www.w3.org/2000/svg" xmlns:xlink="http://www.w3.org/1999/xlink" x="0px" y="0px"
	 viewBox="0 0 300 300" style="enable-background:new 0 0 300 300;" xml:space="preserve">
<g>
	<path d="M150,0C67.2,0,0,67.2,0,150s67.2,150,150,150s150-67.2,150-150S232.8,0,150,0z M224.1,93.4l-65.5,73.7v42.9h34.3
		c4.7,0,8.6,3.9,8.6,8.6c0,4.7-3.9,8.6-8.6,8.6h-85.8c-4.7,0-8.6-3.9-8.6-8.6c0-4.7,3.9-8.6,8.6-8.6h34.3v-42.9L75.9,93.4
		c-2.1-2.2-3.2-5.2-3.2-8.2c0-6.9,5.6-12.4,12.4-12.4h129.6c6.9,0,12.4,5.6,12.4,12.4C227.2,88.2,226.1,91.2,224.1,93.4z"/>
	<polygon points="110.8,107.1 189.2,107.1 204.5,89.9 95.6,89.9 	"/>
</g>
</svg>
