<?xml version="1.0" encoding="utf-8"?>
<!-- Generator: Adobe Illustrator 21.0.0, SVG Export Plug-In . SVG Version: 6.00 Build 0)  -->
<svg version="1.1" id="Layer_1" xmlns="http://www.w3.org/2000/svg" xmlns:xlink="http://www.w3.org/1999/xlink" x="0px" y="0px"
	 viewBox="0 0 300 300" style="enable-background:new 0 0 300 300;" xml:space="preserve">
<g>
	<rect x="196.7" y="95.5" width="15.6" height="23.4"/>
	<path d="M150,0C67.2,0,0,67.2,0,150s67.2,150,150,150s150-67.2,150-150S232.8,0,150,0z M204.5,220.1H79.9c-4.3,0-7.8-3.5-7.8-7.8
		s3.5-7.8,7.8-7.8h124.7c4.3,0,7.8,3.5,7.8,7.8S208.8,220.1,204.5,220.1z M227.9,118.8c0,8.6-7,15.6-15.6,15.6h-15.6v23.4
		c0,17.2-13.9,31.2-31.2,31.2h-46.7c-17.2,0-31.2-13.9-31.2-31.2V95.5c0-8.6,7-15.6,15.6-15.6h109.1c8.6,0,15.6,7,15.6,15.6V118.8z"
		/>
</g>
</svg>
