<?xml version="1.0" encoding="utf-8"?>
<!-- Generator: Adobe Illustrator 21.0.0, SVG Export Plug-In . SVG Version: 6.00 Build 0)  -->
<svg version="1.1" id="Layer_1" xmlns="http://www.w3.org/2000/svg" xmlns:xlink="http://www.w3.org/1999/xlink" x="0px" y="0px"
	 viewBox="0 0 300 300" style="enable-background:new 0 0 300 300;" xml:space="preserve">
<path d="M150,0C67.2,0,0,67.2,0,150s67.2,150,150,150s150-67.2,150-150S232.8,0,150,0z M202.3,182.3c0,5.9-3.2,11.4-8.4,14.3
	l-40.5,22.1c-4.9,2.7-10.7,2.7-15.6,0l-40.5-22.1c-5.2-2.8-8.4-8.3-8.4-14.3v-22.8l48.9,26.7c4.9,2.7,10.7,2.7,15.6,0l48.9-26.7
	V182.3z M234.7,182.4c0,4.5-3.6,8.1-8.1,8.1s-8.1-3.6-8.1-8.1v-47.9l-65.1,35.6c-4.9,2.7-10.7,2.7-15.6,0l-68.3-37.3
	c-5.6-3.1-5.6-11.2,0-14.3l68.3-37.3c4.9-2.6,10.7-2.6,15.6,0l77.1,42c2.6,1.5,4.2,4.1,4.2,7.1V182.4z"/>
</svg>
