<?xml version="1.0" encoding="utf-8"?>
<!-- Generator: Adobe Illustrator 21.0.0, SVG Export Plug-In . SVG Version: 6.00 Build 0)  -->
<svg version="1.1" id="Layer_1" xmlns="http://www.w3.org/2000/svg" xmlns:xlink="http://www.w3.org/1999/xlink" x="0px" y="0px"
	 viewBox="0 0 300 300" style="enable-background:new 0 0 300 300;" xml:space="preserve">
<style type="text/css">
	.st0{fill:none;}
</style>
<path class="st0" d="M-28-28.5h357v357H-28V-28.5z"/>
<path d="M150.4,1.3C68.2,1.3,1.8,67.9,1.8,150s66.5,148.8,148.6,148.8c82.3,0,148.9-66.6,148.9-148.8S232.6,1.3,150.4,1.3z
	 M198.4,230.2l-47.9-28.9l-47.9,28.9c-5.7,3.4-12.6-1.6-11.2-8l12.6-54.4L62,131.3c-4.9-4.3-2.2-12.5,4.3-13.1l55.6-4.8l21.7-51.3
	c2.5-6.1,11.2-6.1,13.7,0l21.7,51.2l55.6,4.8c6.5,0.6,9.2,8.8,4.2,13.1l-42.1,36.4l12.6,54.6C210.9,228.5,204.1,233.6,198.4,230.2z"
	/>
</svg>
