<?xml version="1.0" encoding="utf-8"?>
<!-- Generator: Adobe Illustrator 21.0.0, SVG Export Plug-In . SVG Version: 6.00 Build 0)  -->
<svg version="1.1" id="Layer_2" xmlns="http://www.w3.org/2000/svg" xmlns:xlink="http://www.w3.org/1999/xlink" x="0px" y="0px"
	 viewBox="0 0 300 300" style="enable-background:new 0 0 300 300;" xml:space="preserve">
<g>
	<rect x="195.7" y="188.6" width="9.5" height="13.5"/>
	<polygon points="125.1,212.8 134.6,212.8 134.6,179.9 145.3,179.9 145.3,212.8 154.7,212.8 154.7,179.9 165.4,179.9 165.4,212.8 
		174.9,212.8 174.9,170.4 125.1,170.4 	"/>
	<path d="M150,156.3c8.2,0,14.8-6.6,14.8-14.8c0-8.2-6.6-14.8-14.8-14.8s-14.8,6.6-14.8,14.8C135.2,149.7,141.8,156.3,150,156.3z
		 M150,136.2c3,0,5.4,2.4,5.4,5.4c0,3-2.4,5.4-5.4,5.4s-5.4-2.4-5.4-5.4C144.6,138.6,147,136.2,150,136.2z"/>
	<rect x="94.9" y="188.6" width="9.5" height="13.5"/>
	<path d="M150,0C67.2,0,0,67.2,0,150s67.2,150,150,150s150-67.2,150-150S232.8,0,150,0z M69.3,129.8l21.3-26.6h46l-28.2,33.6h-39
		V129.8z M230.7,222.2H69.3v-9.5H78v-66.5h34.7l32.6-38.8V60.8H182v26.3h-27.3v20.4l32.6,38.8H222v66.5h8.7V222.2z M230.7,136.8h-39
		l-28.2-33.6h46l21.3,26.6V136.8z"/>
	<rect x="195.9" y="161.7" width="9.5" height="13.5"/>
	<rect x="94.6" y="161.7" width="9.5" height="13.5"/>
</g>
</svg>
