<?xml version="1.0" encoding="utf-8"?>
<!-- Generator: Adobe Illustrator 21.0.0, SVG Export Plug-In . SVG Version: 6.00 Build 0)  -->
<svg version="1.1" id="Layer_1" xmlns="http://www.w3.org/2000/svg" xmlns:xlink="http://www.w3.org/1999/xlink" x="0px" y="0px"
	 viewBox="0 0 300 300" style="enable-background:new 0 0 300 300;" xml:space="preserve">
<path d="M150,0C67.2,0,0,67.2,0,150s67.2,150,150,150s150-67.2,150-150S232.8,0,150,0z M158.7,123.8c0,19.3-15.6,34.9-34.9,34.9
	v69.8c0,4.8-3.9,8.7-8.7,8.7c-4.8,0-8.7-3.9-8.7-8.7v-69.8c-19.3,0-34.9-15.6-34.9-34.9V71.5c0-4.8,3.9-8.7,8.7-8.7s8.7,3.9,8.7,8.7
	v52.4h17.5V71.5c0-4.8,3.9-8.7,8.7-8.7c4.8,0,8.7,3.9,8.7,8.7v52.4h17.5V71.5c0-4.8,3.9-8.7,8.7-8.7s8.7,3.9,8.7,8.7V123.8z
	 M228.5,228.5c0,4.8-3.9,8.7-8.7,8.7c-4.8,0-8.7-3.9-8.7-8.7v-61.1h-8.7c-9.6,0-17.4-7.9-17.4-17.5V97.7c0-13,14-29,32.8-33.6
	c5.5-1.3,10.8,2.9,10.8,8.6V228.5z"/>
</svg>
