<?xml version="1.0" encoding="utf-8"?>
<!-- Generator: Adobe Illustrator 21.0.0, SVG Export Plug-In . SVG Version: 6.00 Build 0)  -->
<svg version="1.1" id="Layer_1" xmlns="http://www.w3.org/2000/svg" xmlns:xlink="http://www.w3.org/1999/xlink" x="0px" y="0px"
	 viewBox="0 0 300 300" style="enable-background:new 0 0 300 300;" xml:space="preserve">
<g>
	<path d="M150,0C67.2,0,0,67.2,0,150s67.2,150,150,150s150-67.2,150-150S232.8,0,150,0z M80.4,70.4h139.3c5.5,0,9.9,4.5,9.9,9.9
		s-4.5,9.9-9.9,9.9H80.4c-5.5,0-9.9-4.5-9.9-9.9S74.9,70.4,80.4,70.4z M231.4,169.9h-1.8v49.7c0,5.5-4.5,9.9-9.9,9.9
		c-5.5,0-9.9-4.5-9.9-9.9v-49.7h-39.8v49.7c0,5.5-4.5,9.9-9.9,9.9H80.4c-5.5,0-9.9-4.5-9.9-9.9v-49.7h-1.8c-6.3,0-10.9-5.8-9.7-11.9
		l9.9-49.7c0.9-4.6,5-8,9.7-8h142.8c4.8,0,8.9,3.4,9.7,8l9.9,49.7C242.3,164.1,237.6,169.9,231.4,169.9z"/>
	<rect x="90.3" y="169.9" width="59.7" height="39.8"/>
</g>
</svg>
